<?xml version="1.0" encoding="utf-8"?>
<!-- Generator: Adobe Illustrator 24.3.0, SVG Export Plug-In . SVG Version: 6.00 Build 0)  -->
<svg version="1.1" id="Layer_1" xmlns="http://www.w3.org/2000/svg" xmlns:xlink="http://www.w3.org/1999/xlink" x="0px" y="0px"
	 viewBox="0 0 354 417" style="enable-background:new 0 0 354 417;" xml:space="preserve">
<style type="text/css">
	.st0{fill:#95408F;}
</style>
<path id="File" class="st0" d="M335.9,159c0-4.2-1.5-8.3-4.5-11.3l-128-128c-3.1-3.1-7.2-4.6-11.3-4.6V15H96c-44.1,0-80,35.9-80,80
	v224c0,44.1,35.9,80,80,80h160c44.1,0,80-35.9,80-80V159H335.9z M208,69.6l73.4,73.4H256c-26.5,0-48-21.5-48-48V69.6z M256,367H96
	c-26.5,0-48-21.5-48-48V95c0-26.5,21.5-48,48-48h80v48c0,44.1,35.9,80,80,80h48v144C304,345.5,282.5,367,256,367z M256,303
	c0,8.8-7.2,16-16,16H112c-8.8,0-16-7.2-16-16s7.2-16,16-16h128C248.8,287,256,294.2,256,303z M256,239c0,8.8-7.2,16-16,16H112
	c-8.8,0-16-7.2-16-16s7.2-16,16-16h128C248.8,223,256,230.2,256,239z M96,175c0-8.8,7.2-16,16-16h32c8.8,0,16,7.2,16,16
	s-7.2,16-16,16h-32C103.2,191,96,183.8,96,175z"/>
</svg>
