<svg id="Capa_1" data-name="Capa 1" xmlns="http://www.w3.org/2000/svg" viewBox="0 0 236.82 236.82"><defs><style>.cls-1{fill:#000002;}</style></defs><path class="cls-1" d="M203.42,47l-38-37.78C160.08,4,150.46,0,143,0H41.58a17.52,17.52,0,0,0-17.5,17.5V219.32a17.53,17.53,0,0,0,17.5,17.5H195.24a17.53,17.53,0,0,0,17.5-17.5V69.37C212.74,61.89,208.73,52.27,203.42,47Zm-11.94,9.28H161.05a2.54,2.54,0,0,1-2.5-2.5V23.59Zm3.76,165.54H41.58a2.54,2.54,0,0,1-2.5-2.5V17.5a2.54,2.54,0,0,1,2.5-2.5H143l.56,0V53.78a17.52,17.52,0,0,0,17.5,17.5h36.69v148A2.54,2.54,0,0,1,195.24,221.82Z"/><path class="cls-1" d="M64.06,71.28h50a7.5,7.5,0,0,0,0-15h-50a7.5,7.5,0,0,0,0,15Z"/><path class="cls-1" d="M173.39,182.12h-50a7.5,7.5,0,1,0,0,15h50a7.5,7.5,0,0,0,0-15Z"/><path class="cls-1" d="M173.39,91.55H64.06a7.5,7.5,0,0,0,0,15H173.39a7.5,7.5,0,0,0,0-15Z"/><path class="cls-1" d="M173.39,126.83H64.06a7.5,7.5,0,1,0,0,15H173.39a7.5,7.5,0,0,0,0-15Z"/></svg>