<svg id="Capa_1" data-name="Capa 1" xmlns="http://www.w3.org/2000/svg" viewBox="0 0 215.35 215.35"><path d="M7.5,65.09a7.5,7.5,0,0,0,7.5-7.5v-32L63.31,73.9a7.5,7.5,0,0,0,10.6-10.6L25.6,15h32a7.5,7.5,0,0,0,0-15H7.5A7.5,7.5,0,0,0,0,7.5V57.59A7.5,7.5,0,0,0,7.5,65.09Z"/><path d="M207.85,150.26a7.5,7.5,0,0,0-7.5,7.5v32L150.56,140A7.5,7.5,0,0,0,140,150.56l49.79,49.79h-32a7.5,7.5,0,0,0,0,15h50.08a7.5,7.5,0,0,0,7.5-7.5V157.76A7.5,7.5,0,0,0,207.85,150.26Z"/><path d="M64.79,140,15,189.74v-32a7.5,7.5,0,0,0-15,0v50.09a7.5,7.5,0,0,0,7.5,7.5H57.59a7.5,7.5,0,0,0,0-15h-32L75.4,150.56A7.5,7.5,0,0,0,64.79,140Z"/><path d="M207.85,0H157.76a7.5,7.5,0,0,0,0,15h32L141.45,63.3a7.5,7.5,0,1,0,10.6,10.61l48.3-48.3v32a7.5,7.5,0,0,0,15,0V7.5A7.5,7.5,0,0,0,207.85,0Z"/></svg>