<svg id="_1_px" data-name="1 px" xmlns="http://www.w3.org/2000/svg" fill='#fff' viewBox="0 0 512 512"><path d="M277.4,454.1,454,277.5l15.08,15.08-176.6,176.6Z"/><path d="M373.33,512c-76.46,0-138.66-62.21-138.66-138.67s62.2-138.66,138.66-138.66S512,296.87,512,373.33,449.79,512,373.33,512Zm0-256A117.34,117.34,0,1,0,490.67,373.33,117.47,117.47,0,0,0,373.33,256Z"/><path d="M74.67,512H32A32,32,0,0,1,0,480V352a32,32,0,0,1,32-32H74.67a32,32,0,0,1,32,32V480A32,32,0,0,1,74.67,512ZM32,341.33A10.69,10.69,0,0,0,21.33,352V480A10.69,10.69,0,0,0,32,490.67H74.67A10.68,10.68,0,0,0,85.33,480V352a10.68,10.68,0,0,0-10.66-10.67Z"/><path d="M202.67,512H160a32,32,0,0,1-32-32V266.67a32,32,0,0,1,32-32h42.67a31.31,31.31,0,0,1,28,16.87,10.67,10.67,0,0,1-19,9.79,10,10,0,0,0-9.06-5.33H160a10.69,10.69,0,0,0-10.67,10.67V480A10.69,10.69,0,0,0,160,490.67h42.67a10.06,10.06,0,0,0,9.08-5.34,10.68,10.68,0,0,1,19,9.8A31.36,31.36,0,0,1,202.67,512Z"/><path d="M266.67,224A10.67,10.67,0,0,1,256,213.33V138.67a32,32,0,0,1,32-32h42.67a32,32,0,0,1,32,32v42.66a10.67,10.67,0,0,1-21.34,0V138.67A10.68,10.68,0,0,0,330.67,128H288a10.69,10.69,0,0,0-10.67,10.67v74.66A10.67,10.67,0,0,1,266.67,224Z"/><path d="M480,234.67A10.67,10.67,0,0,1,469.33,224V32a10.68,10.68,0,0,0-10.66-10.67H416A10.69,10.69,0,0,0,405.33,32V181.33a10.67,10.67,0,1,1-21.33,0V32A32,32,0,0,1,416,0h42.67a32,32,0,0,1,32,32V224A10.67,10.67,0,0,1,480,234.67Z"/></svg>