<svg id="Line" enable-background="new 0 0 32 32" height="512" viewBox="0 0 32 32" width="512" xmlns="http://www.w3.org/2000/svg"><path id="XMLID_111_" d="m16 11c-2.757 0-5 2.243-5 5s2.243 5 5 5 5-2.243 5-5-2.243-5-5-5zm0 8c-1.654 0-3-1.346-3-3s1.346-3 3-3 3 1.346 3 3-1.346 3-3 3z"/><path id="XMLID_114_" d="m27.526 18.036-.526-.304c-.626-.361-1-1.009-1-1.732s.374-1.371 1-1.732l.526-.304c1.436-.829 1.927-2.662 1.098-4.098l-1-1.732c-.827-1.433-2.666-1.925-4.098-1.098l-.526.303c-.626.362-1.375.362-2 0-.626-.362-1-1.009-1-1.732v-.607c0-1.654-1.346-3-3-3h-2c-1.654 0-3 1.346-3 3v.608c0 .723-.374 1.37-1 1.732-.626.361-1.374.362-2 0l-.526-.304c-1.432-.827-3.271-.335-4.099 1.098l-1 1.732c-.829 1.436-.338 3.269 1.098 4.098l.527.304c.626.361 1 1.009 1 1.732s-.374 1.371-1 1.732l-.526.304c-1.436.829-1.927 2.662-1.098 4.098l1 1.732c.828 1.433 2.667 1.925 4.098 1.098l.526-.303c.626-.363 1.374-.361 2 0 .626.362 1 1.009 1 1.732v.607c0 1.654 1.346 3 3 3h2c1.654 0 3-1.346 3-3v-.608c0-.723.374-1.37 1-1.732.625-.361 1.374-.362 2 0l.526.304c1.432.826 3.271.334 4.098-1.098l1-1.732c.829-1.436.338-3.269-1.098-4.098zm-.634 3.098-1 1.732c-.277.482-.894.641-1.366.366l-.526-.304c-1.253-.723-2.748-.723-4 0s-2 2.018-2 3.464v.608c0 .551-.449 1-1 1h-2c-.551 0-1-.449-1-1v-.608c0-1.446-.748-2.741-2-3.464s-2.748-.723-4 0l-.526.304c-.477.278-1.09.112-1.366-.366l-1-1.732c-.28-.485-.106-1.094.366-1.366l.526-.304c1.252-.723 2-2.018 2-3.464s-.748-2.741-2-3.464l-.526-.304c-.471-.271-.646-.881-.366-1.366l1-1.732c.281-.488.901-.636 1.366-.366l.526.304c1.253.723 2.748.723 4 0s2-2.018 2-3.464v-.608c0-.551.449-1 1-1h2c.551 0 1 .449 1 1v.608c0 1.446.748 2.741 2 3.464s2.748.723 4 0l.526-.304c.473-.273 1.087-.118 1.366.366l1 1.732c.28.485.106 1.094-.366 1.366l-.526.304c-1.252.723-2 2.018-2 3.464s.748 2.741 2 3.464l.526.304c.472.272.646.881.366 1.366z"/></svg>