<svg xmlns="http://www.w3.org/2000/svg" width="22" height="22" viewBox="0 0 22 22">
  <metadata><?xpacket begin="﻿" id="W5M0MpCehiHzreSzNTczkc9d"?>
<x:xmpmeta xmlns:x="adobe:ns:meta/" x:xmptk="Adobe XMP Core 5.6-c138 79.159824, 2016/09/14-01:09:01        ">
   <rdf:RDF xmlns:rdf="http://www.w3.org/1999/02/22-rdf-syntax-ns#">
      <rdf:Description rdf:about=""/>
   </rdf:RDF>
</x:xmpmeta>
                                                                                                    
                                                                                                    
                                                                                                    
                                                                                                    
                                                                                                    
                                                                                                    
                                                                                                    
                                                                                                    
                                                                                                    
                                                                                                    
                                                                                                    
                                                                                                    
                                                                                                    
                                                                                                    
                                                                                                    
                                                                                                    
                                                                                                    
                                                                                                    
                                                                                                    
                                                                                                    
                           
<?xpacket end="w"?></metadata>
<defs>
    <style>
      .cls-1 {
        fill: #954090;
        fill-rule: evenodd;
      }
    </style>
  </defs>
  <path id="Фигура_17" data-name="Фигура 17" class="cls-1" d="M1245.07,670.088a2.291,2.291,0,1,1-2.29-2.225A2.262,2.262,0,0,1,1245.07,670.088Zm8.39,3.287a11.022,11.022,0,0,1-2.2,3.808,11.263,11.263,0,0,1-3.55,2.679,11.522,11.522,0,0,1-4.18,1.109c-0.26.019-.53,0.03-0.79,0.03h-0.06a11.473,11.473,0,0,1-3.45-.53,11.254,11.254,0,0,1-3.91-2.141,10.9,10.9,0,0,1-2.75-3.454l2.84-1.394a7.96,7.96,0,0,0,1.96,2.464,8.212,8.212,0,0,0,5.26,1.908c0.21,0,.41-0.007.6-0.022a8.209,8.209,0,0,0,2.99-.791,8.024,8.024,0,0,0,2.54-1.914,7.714,7.714,0,0,0,1.96-5.124c0-.2-0.01-0.391-0.03-0.592a7.534,7.534,0,0,0-.81-2.9,7.914,7.914,0,0,0-1.96-2.464,8.178,8.178,0,0,0-2.79-1.53,8.872,8.872,0,0,0-3.09-.357,8.236,8.236,0,0,0-2.97.793,8.587,8.587,0,0,0-2.02,1.4l0.01,0.008,2.06,1.7-7.12,1.642,0.53-7.1,2.08,1.719,0.01,0.008a11.257,11.257,0,0,1,7.26-3.314,12.117,12.117,0,0,1,4.29.5,11.293,11.293,0,0,1,3.91,2.144,10.9,10.9,0,0,1,2.75,3.452,10.74,10.74,0,0,1,1.14,4.072c0.02,0.271.03,0.54,0.03,0.812A10.734,10.734,0,0,1,1253.46,673.375Z" transform="translate(-1232 -659)"/>
</svg>
