<svg id="Слой_1" data-name="Слой 1" xmlns="http://www.w3.org/2000/svg" viewBox="0 0 511 511">
<path fill='#a3a4ab' d="M255.48,441.13h-.14C239.93,441,103.61,439.78,65,429.34A79,79,0,0,1,9.42,373.8C-.68,335.87,0,262.83,0,257s-.72-79.45,9.36-117.7l0-.11c7.2-26.68,29-48.62,55.51-55.9l.2,0c38.18-10,174.76-11.27,190.21-11.37h.28c15.46.1,152.13,1.35,190.4,11.81a78.93,78.93,0,0,1,55.5,55.45C512,177.39,511,251.2,510.93,257.43c.07,6.14.69,78.52-9.36,116.65l0,.11a79,79,0,0,1-55.6,55.54l-.11,0c-38.18,10-174.76,11.26-190.21,11.37ZM48,149.53c-8.87,33.76-8,106.47-8,107.2v.53c-.26,20.16.67,78.56,8,106.21a38.93,38.93,0,0,0,27.41,27.32c28.49,7.71,139.51,10.13,180.09,10.42,40.68-.29,151.87-2.65,180.15-10A38.92,38.92,0,0,0,463,363.85c7.37-28.06,8.3-86.17,8-106.2V257c.37-20.41-.35-79.48-8-107.36a.29.29,0,0,1,0-.09,39,39,0,0,0-27.43-27.37c-28.21-7.72-139.41-10.13-180.09-10.42-40.65.29-151.73,2.64-180.1,10A40,40,0,0,0,48,149.53ZM482.27,369h0ZM204.6,337.33V175.65l139.73,80.84Z"/></svg>