<svg id="Capa_1" data-name="Capa 1" xmlns="http://www.w3.org/2000/svg" width="19" height="19" viewBox="0 0 512.01 512.01"><defs><style>.cls-1{fill:#36a9e0;}</style></defs><path class="cls-1" d="M212.26,390.25l-60.33,60.33a64,64,0,0,1-90.51-90.49L182.1,239.4a64,64,0,0,1,90.49,0,21.33,21.33,0,0,0,30.17-30.17,106.65,106.65,0,0,0-150.83,0L31.25,329.92A106.66,106.66,0,1,0,182.1,480.75l60.34-60.33a21.34,21.34,0,0,0-30.18-30.17Z"/><path class="cls-1" d="M480.76,182.08A106.66,106.66,0,0,0,329.91,31.24l-72.39,72.39a21.33,21.33,0,0,0,30.17,30.17l72.38-72.38a64,64,0,0,1,90.52,90.49L317.85,284.65a64,64,0,0,1-90.49,0,21.33,21.33,0,0,0-30.17,30.17,106.65,106.65,0,0,0,150.83,0Z"/><path class="cls-1" d="M399.1,368.93a21.33,21.33,0,1,0-30.17,30.17l64,64a21.34,21.34,0,1,0,30.17-30.18Z"/><path class="cls-1" d="M113,143.11a21.33,21.33,0,0,0,30.17-30.17l-64.05-64A21.33,21.33,0,0,0,48.9,79.07Z"/><path class="cls-1" d="M490.67,320h-64a21.34,21.34,0,0,0,0,42.67h64a21.34,21.34,0,0,0,0-42.67Z"/><path class="cls-1" d="M170.67,106.67A21.33,21.33,0,0,0,192,85.33v-64a21.33,21.33,0,0,0-42.66,0v64A21.34,21.34,0,0,0,170.67,106.67Z"/><path class="cls-1" d="M21.34,192h64a21.34,21.34,0,0,0,0-42.67h-64a21.34,21.34,0,1,0,0,42.67Z"/><path class="cls-1" d="M341.34,405.33A21.33,21.33,0,0,0,320,426.67v64a21.34,21.34,0,0,0,42.67,0v-64A21.34,21.34,0,0,0,341.34,405.33Z"/></svg>