<svg xmlns="http://www.w3.org/2000/svg" viewBox="0 0 308.87 308.87"><defs><style>.cls-1{fill:#e5f1d4;}.cls-2{fill:#4e5064;}.cls-12,.cls-3,.cls-8,.cls-9{fill:none;stroke-linecap:round;stroke-linejoin:round;}.cls-3,.cls-9{stroke:#242837;}.cls-3{stroke-width:2px;}.cls-4{fill:#d99f59;}.cls-5{fill:#cc612c;}.cls-6{fill:#242837;}.cls-7{fill:#fff;}.cls-8{stroke:#386742;}.cls-12,.cls-8,.cls-9{stroke-width:3px;}.cls-10{fill:#72c6ef;}.cls-11{fill:#007dc5;}.cls-12{stroke:#fffffe;}</style></defs><g id="Слой_2" data-name="Слой 2"><g id="Layer_1" data-name="Layer 1"><circle class="cls-1" cx="154.44" cy="154.44" r="154.44"/><path class="cls-2" d="M117.55,252.66s-13.14,14.22-28.47,8.81-8.27-26.23-8.27-26.23Z"/><path class="cls-3" d="M99.19,253.8a7.19,7.19,0,0,0-1.72,5"/><path class="cls-3" d="M92.65,251.15s-2.67,1.48-2.57,6.27"/><path class="cls-3" d="M86.3,247.07s-2.37,3-2.12,6.26"/><path class="cls-2" d="M190.3,252.66s13.14,14.22,28.47,8.81,8.28-26.23,8.28-26.23Z"/><path class="cls-3" d="M208.66,253.8a7.23,7.23,0,0,1,1.73,5"/><path class="cls-3" d="M215.2,251.15s2.68,1.48,2.58,6.27"/><path class="cls-3" d="M221.55,247.07s2.37,3,2.12,6.26"/><path class="cls-4" d="M155.46,110.3v-.51l-1,.25-1-.25v.51c-14,3.7-95.13,27.81-91.7,88.94,2.93,52.21,58.6,59.25,92.78,59.25s89.75-7,92.67-59.25C250.59,138.11,169.46,114,155.46,110.3Z"/><path class="cls-5" d="M231.51,129.85s47.14,49.93,20,86.16c-18.91,25.21-56.39,27.72-56.39,27.72V191.36s41.16-11.6,24.62-40.48C207,128.69,231.51,129.85,231.51,129.85Z"/><path class="cls-6" d="M195.08,191.36s-16.2,4.2-17.22,10.61c-1.21,7.54,3.5,17.28,17.16,18.86C195,204.54,195.08,191.36,195.08,191.36Z"/><path class="cls-5" d="M78.63,129.85s-47.14,49.93-20,86.16c18.91,25.21,56.39,27.72,56.39,27.72V191.36s-41.16-11.6-24.62-40.48C103.15,128.69,78.63,129.85,78.63,129.85Z"/><path class="cls-6" d="M115.06,191.36s16.2,4.12,17.23,10.54c1.2,7.54-3.54,17.41-17.2,19C115,204.82,115.06,191.36,115.06,191.36Z"/><path class="cls-6" d="M110.51,74.42c-3.1-1.66-7.45-6.56-9.26-8.5-5.61-6-6-15.45-.44-20.64S115.65,41,121.38,47.1a34.21,34.21,0,0,1,6.78,12.41"/><path class="cls-6" d="M197.7,74.42c3.09-1.66,7.44-6.56,9.25-8.5,5.61-6,6-15.45.45-20.64S192.56,41,186.83,47.1a33.91,33.91,0,0,0-6.78,12.41"/><path class="cls-7" d="M231.74,118.54c13.3,33.21-34.61,61.17-77.3,61.17s-91.51-28.29-77.31-61.17c16.3-37.74,34.61-72.32,77.31-72.32S217,81.68,231.74,118.54Z"/><ellipse class="cls-6" cx="117.41" cy="91.98" rx="21.91" ry="16.82" transform="translate(-29 120.45) rotate(-49.08)"/><ellipse class="cls-6" cx="189.32" cy="91.98" rx="16.82" ry="21.91" transform="translate(-13.98 146.49) rotate(-40.92)"/><path class="cls-8" d="M133.86,100.61s19.12-12.16,39.64-.52"/><ellipse class="cls-9" cx="153.98" cy="157.92" rx="14.65" ry="6.94"/><path class="cls-2" d="M155.51,133.57s-21.47-10.9-41.29,13.76C100.78,164,77.81,171.85,68.67,158.14c8.52,36.7,44.56,37,58.33,4.92C140.17,132.32,150.57,133.46,155.51,133.57Z"/><path class="cls-2" d="M157.27,133.57s21.46-10.9,41.29,13.76C212,164,235,171.85,244.1,158.14c-8.52,36.7-44.56,37-58.32,4.92C172.6,132.32,162.21,133.46,157.27,133.57Z"/><line class="cls-9" x1="154.31" y1="139.19" x2="154.31" y2="150.72"/><path class="cls-6" d="M154,140.75c-3.26,0-12.29-5.6-12.7-12.71s7.81-8.33,13.09-8.33,13.32,1.22,12.91,8.33S157.28,140.75,154,140.75Z"/><circle class="cls-10" cx="107.16" cy="106.14" r="28.85"/><circle class="cls-11" cx="107.16" cy="106.14" r="20.72"/><circle class="cls-10" cx="200.2" cy="106.14" r="28.85"/><circle class="cls-11" cx="200.2" cy="106.14" r="20.1"/><path class="cls-12" d="M191.75,103.22s7.48-4.88,12.69,1"/><path class="cls-12" d="M117.51,103.22s-7.48-4.88-12.69,1"/></g></g></svg>