<svg xmlns="http://www.w3.org/2000/svg" viewBox="0 0 308.87 308.87"><defs><style>.cls-1{fill:#fcdee0;}.cls-2{fill:#d2587e;}.cls-3{fill:#242837;}.cls-4{fill:#c0406d;}.cls-5{fill:#4e5064;}.cls-6,.cls-8,.cls-9{fill:none;stroke-linecap:round;stroke-linejoin:round;}.cls-6,.cls-8{stroke:#242837;}.cls-6{stroke-width:2px;}.cls-7{fill:#fff;}.cls-8,.cls-9{stroke-width:3px;}.cls-9{stroke:#fffffe;}.cls-10{fill:#e7839a;}</style></defs><g id="Слой_2" data-name="Слой 2"><g id="Layer_1" data-name="Layer 1"><circle class="cls-1" cx="154.44" cy="154.44" r="154.44"/><path class="cls-2" d="M152.79,248.16h.55c32.88,0,54.49-6.72,54.49-28.54S185.24,161,153.34,161h-.55c-31.9,0-54.49,36.82-54.49,58.65S119.91,248.16,152.79,248.16Z"/><path class="cls-3" d="M230.62,189.15s7.94-1.53,11.4-7.27c2.74-4.56,1-10.8-11-9.15C230.4,182.33,230.62,189.15,230.62,189.15Z"/><path class="cls-2" d="M192.12,171s21.78,6.68,38.92,1.74v32s-26.14-1.74-42.7-16.55S173,172.73,173,172.73Z"/><polygon class="cls-4" points="231.04 172.73 226.11 178 231.04 181.45 231.04 172.73"/><polygon class="cls-4" points="231.04 181.45 226.11 186.72 231.03 190.08 231.04 181.45"/><polygon class="cls-4" points="231.03 190.08 226.11 195.28 231.03 198.64 231.03 190.08"/><path class="cls-4" d="M231,198.6l-5,5.46c2,.35,5,.62,5,.62Z"/><path class="cls-3" d="M80.51,189.15s-7.94-1.53-11.39-7.27c-2.75-4.56-1-10.8,11-9.15C80.74,182.33,80.51,189.15,80.51,189.15Z"/><path class="cls-2" d="M119,171s-21.79,6.68-38.92,1.74v32s26.14-1.74,42.69-16.55,15.39-15.4,15.39-15.4Z"/><polygon class="cls-4" points="80.1 172.73 85.03 178 80.1 181.45 80.1 172.73"/><polygon class="cls-4" points="80.1 181.45 85.03 186.72 80.1 190.08 80.1 181.45"/><polygon class="cls-4" points="80.1 190.08 85.03 195.28 80.1 198.64 80.1 190.08"/><path class="cls-4" d="M80.1,198.6s4.37,4.81,5,5.46c-2,.35-5,.62-5,.62Z"/><path class="cls-5" d="M187.44,258.08c-10.83-4.76-24.78-16.52-6.61-35.53s33-15.69,41.31-7.43S221.32,273,187.44,258.08Z"/><path class="cls-6" d="M203.85,211.19s2.66,4.65-1.33,11.31"/><path class="cls-6" d="M220.21,217.77s1.84,2.72,0,7.71"/><path class="cls-6" d="M213,212s3.3,5.78-1.65,14"/><path class="cls-5" d="M118.83,258.08c10.83-4.76,24.78-16.52,6.61-35.53s-33-15.69-41.31-7.43S85,273,118.83,258.08Z"/><path class="cls-6" d="M102.42,211.19s-2.66,4.65,1.33,11.31"/><path class="cls-6" d="M86.06,217.77s-1.84,2.72,0,7.71"/><path class="cls-6" d="M93.27,212s-3.3,5.78,1.65,14"/><polygon class="cls-7" points="132.59 181.46 153.84 211.22 173.68 182.88 132.59 181.46"/><polygon class="cls-4" points="132.59 182.88 153.84 211.22 156.68 205.55 139.67 181.46 132.59 182.88"/><polygon class="cls-4" points="153.84 211.22 173.68 182.88 166.6 182.88 152.43 202.72 153.84 211.22"/><path class="cls-7" d="M226.11,131.87c7.09,35.42-31.81,56.48-70.2,56.48s-77.75-24-70.08-56.48c8.48-36,31.7-63.54,70.08-63.54S219.11,96.86,226.11,131.87Z"/><line class="cls-8" x1="156.55" y1="156.68" x2="156.83" y2="171.56"/><path class="cls-3" d="M156.42,161.44c-2.39.05-9.08-3.92-9.47-9.12s5.6-6.21,9.46-6.28,9.77.71,9.57,5.92S158.82,161.4,156.42,161.44Z"/><path class="cls-8" d="M136.05,165.88s10,5.89,21.3,5.67a39.51,39.51,0,0,0,20-6.46"/><ellipse class="cls-3" cx="192.98" cy="139.27" rx="15.56" ry="20.27" transform="translate(-44.06 160.45) rotate(-40.92)"/><path class="cls-9" d="M185.68,142.74s6.34-6.13,14.65-2"/><ellipse class="cls-3" cx="119.84" cy="139.27" rx="20.27" ry="15.56" transform="translate(-63.89 138.59) rotate(-49.08)"/><path class="cls-9" d="M127.14,142.74s-6.34-6.13-14.65-2"/><path class="cls-3" d="M193,71.79c0-43.81-23.71-39-36.76-39s-36.76-3.53-36.76,39c-30.4-18.25-78.42,30.56-33.26,76.71,0,0,13.66-60.13,70-33,58.27-26,70,33,70,33C271.43,102.35,229.08,53.54,193,71.79Z"/><circle class="cls-4" cx="192.32" cy="71.43" r="7.99"/><circle class="cls-10" cx="192.32" cy="71.43" r="4.31"/><circle class="cls-4" cx="191.5" cy="58.2" r="3.41"/><circle class="cls-4" cx="182.38" cy="62.66" r="3.41"/><circle class="cls-4" cx="179.09" cy="72.25" r="3.41"/><circle class="cls-4" cx="183.54" cy="81.36" r="3.41"/><circle class="cls-4" cx="193.14" cy="84.66" r="3.41"/><circle class="cls-4" cx="202.25" cy="80.2" r="3.41"/><circle class="cls-4" cx="205.54" cy="70.61" r="3.41"/><circle class="cls-4" cx="201.09" cy="61.5" r="3.41"/><circle class="cls-4" cx="119.25" cy="71.43" r="7.99"/><circle class="cls-10" cx="119.25" cy="71.43" r="4.31"/><circle class="cls-4" cx="118.43" cy="58.2" r="3.41"/><circle class="cls-4" cx="109.32" cy="62.66" r="3.41"/><circle class="cls-4" cx="106.03" cy="72.25" r="3.41"/><circle class="cls-4" cx="110.48" cy="81.36" r="3.41"/><circle class="cls-4" cx="120.07" cy="84.66" r="3.41"/><circle class="cls-4" cx="129.19" cy="80.2" r="3.41"/><circle class="cls-4" cx="132.48" cy="70.61" r="3.41"/><circle class="cls-4" cx="128.03" cy="61.5" r="3.41"/></g></g></svg>