<svg xmlns="http://www.w3.org/2000/svg" xmlns:xlink="http://www.w3.org/1999/xlink" viewBox="0 0 194.67 197.19"><defs><style>.cls-1{isolation:isolate;}.cls-2{fill:#865917;}.cls-3{fill:url(#linear-gradient);}.cls-4{fill:#c9862e;}.cls-5{fill:#fddf2e;}.cls-6{fill:#f78f1e;mix-blend-mode:multiply;}</style><linearGradient id="linear-gradient" x1="1.84" y1="97.34" x2="192.83" y2="97.34" gradientUnits="userSpaceOnUse"><stop offset="0.01" stop-color="#ffd10c"/><stop offset="1" stop-color="#e4a025"/></linearGradient></defs><g class="cls-1"><g id="Слой_2" data-name="Слой 2"><g id="Layer_1" data-name="Layer 1"><path class="cls-2" d="M97.29,190.29C44.64,190.29,2,150.21.1,100.09c0,1.14.67,2.29.67,3.45,0,51.72,42.66,93.65,96.52,93.65s96.53-41.93,96.53-93.65c0-1.16-.14-2.31-.18-3.45C191.75,150.21,150,190.29,97.29,190.29Z"/><path class="cls-3" d="M97.34,192.83a95.5,95.5,0,1,1,95.49-95.49A95.6,95.6,0,0,1,97.34,192.83Zm28.53-67V68.81H68.81v57.06Z"/><path class="cls-4" d="M97.34,3.68A93.66,93.66,0,1,1,3.69,97.34,93.65,93.65,0,0,1,97.34,3.68M67,127.71h60.75V67H67v60.75M97.34,0a97.34,97.34,0,1,0,97.33,97.34A97.45,97.45,0,0,0,97.34,0ZM70.65,70.65H124V124H70.65V70.65Z"/><path class="cls-5" d="M97.1,127.72H67.2V67H97.1L97.57,3.7a93.65,93.65,0,0,0,0,187.3Z"/><circle class="cls-6" cx="97.34" cy="37.32" r="10.12"/><path class="cls-2" d="M97.34,28.15A9.88,9.88,0,0,1,107.43,38c0-.21,0-.43,0-.65a10.13,10.13,0,0,0-20.25,0c0,.22,0,.44,0,.65C87.24,32,92,28.15,97.34,28.15Z"/><circle class="cls-6" cx="97.34" cy="160.02" r="10.12"/><path class="cls-2" d="M97.34,150.84a9.89,9.89,0,0,1,10.09,9.83c0-.22,0-.43,0-.65a10.13,10.13,0,1,0-20.25,0c0,.22,0,.43,0,.65C87.24,154.68,92,150.84,97.34,150.84Z"/><rect class="cls-6" x="151.65" y="88.04" width="18.59" height="18.59"/><polygon class="cls-6" points="22.47 104.91 35.62 85.76 48.77 104.91 22.47 104.91"/><path class="cls-2" d="M97.37,6.09A93.64,93.64,0,0,1,191,98.54c0-.4,0-.8,0-1.2a93.66,93.66,0,1,0-187.31,0c0,.4,0,.8,0,1.2A93.65,93.65,0,0,1,97.37,6.09Z"/><polygon class="cls-2" points="125.32 130.11 127.74 127.71 67.26 127.71 69.36 130.11 125.32 130.11"/><polygon class="cls-2" points="73.3 124.36 73.3 74.2 121.21 74.2 121.21 123.86 123.97 123.86 123.97 70.19 70.29 70.19 70.29 124.36 73.3 124.36"/><polygon class="cls-2" points="22.47 104.91 23.28 104.91 35.66 86.88 47.93 104.87 48.77 104.87 35.62 85.76 22.47 104.91"/><path class="cls-2" d="M151.65,106.63l.63-.62c.16,0-.06-17.38-.06-17.38h17.44v17.31l.64.64V88H151.65Z"/></g></g></g></svg>