<?xml version="1.0" encoding="utf-8"?>
<!-- Generator: Adobe Illustrator 24.3.0, SVG Export Plug-In . SVG Version: 6.00 Build 0)  -->
<svg version="1.1" id="Layer_1" xmlns="http://www.w3.org/2000/svg" xmlns:xlink="http://www.w3.org/1999/xlink" x="0px" y="0px"
	 viewBox="0 0 791 900.2" style="enable-background:new 0 0 791 900.2;" xml:space="preserve">
<style type="text/css">
	.st0{fill:#4E5064;stroke:#242837;stroke-width:7;stroke-linecap:round;stroke-linejoin:round;stroke-miterlimit:10;}
	.st1{fill:#C7EAFB;stroke:#242837;stroke-width:7;stroke-linecap:round;stroke-linejoin:round;stroke-miterlimit:10;}
	.st2{fill:#AE275F;stroke:#242837;stroke-width:7;stroke-linecap:round;stroke-linejoin:round;stroke-miterlimit:10;}
	.st3{fill:#FFFFFE;stroke:#242837;stroke-width:7;stroke-linecap:round;stroke-linejoin:round;stroke-miterlimit:10;}
	.st4{fill:#4E5064;}
	.st5{fill:none;stroke:#242837;stroke-width:7;stroke-linecap:round;stroke-linejoin:round;stroke-miterlimit:10;}
	.st6{fill:#D2587E;}
	.st7{fill:#C0406D;}
	.st8{fill:#FCDEE0;}
	.st9{fill:#72C6EF;}
	.st10{fill:#242837;}
	.st11{fill:#FFFFFE;}
</style>
<g>
	<g>
		<path class="st0" d="M527.9,854.7c0,0,49.2,53.3,106.6,33c57.2-20.2,31-98.3,31-98.3L527.9,854.7z"/>
		<path class="st1" d="M598.1,868.3c0,0,7.5,8.2,6.5,18.8"/>
		<path class="st1" d="M622.6,858.4c0,0,10,5.5,9.6,23.5"/>
		<path class="st1" d="M646.5,845.9c0,0,8.9,11.4,7.9,23.4"/>
	</g>
	<g>
		<path class="st0" d="M268.4,854.7c0,0-49.2,53.3-106.6,33c-57.2-20.2-31-98.3-31-98.3L268.4,854.7z"/>
		<path class="st1" d="M198.2,868.3c0,0-7.5,8.2-6.5,18.8"/>
		<path class="st1" d="M173.7,858.4c0,0-10,5.5-9.6,23.5"/>
		<path class="st1" d="M149.8,845.9c0,0-8.9,11.4-7.9,23.4"/>
	</g>
	<path class="st2" d="M397.4,145.8l0-2.6c0,0-1.4,0.4-3.9,1.2c-2.5-0.8-3.9-1.2-3.9-1.2l0,2.6C337.3,164.1,33.4,282.9,46.2,584.4
		c11,257.4,219.5,292.2,347.5,292.2s336.2-34.7,347.1-292.2C753.7,282.9,449.8,164.1,397.4,145.8z"/>
	<g>
		<path class="st2" d="M644.2,270.2c0,0,214.7,225.1,112.9,360.8c-70.8,94.5-211.3,103.8-211.3,103.8V538.7c0,0,30.6-7.7,68.5-32"/>
		<path class="st0" d="M545.8,538.7c0,0-59.1,14.7-64.5,54.8c-3.8,28.4,13.1,49.7,64.3,55.6C545.6,588.1,545.8,538.7,545.8,538.7z"
			/>
	</g>
	<g>
		<path class="st2" d="M153.4,264.5c0,0-220.4,230.8-118.6,366.5C105.6,725.5,246,734.9,246,734.9V538.7c0,0-41.9-6.2-69.2-27.5"/>
		<path class="st0" d="M246,538.7c0,0,59.3,11.6,66.1,48c5.2,28.1-14.8,56.7-66,62.6C245.7,589.1,246,538.7,246,538.7z"/>
	</g>
	<polyline class="st3" points="309,454.8 396.2,579.6 479.9,449.7 	"/>
	<path class="st0" d="M250.1,116.7c-10.1-5.4-24.4-21.5-30.3-27.8c-18.4-19.6-19.6-50.5-1.5-67.5c18.2-17,48.5-14.1,67.3,6
		c8.7,9.3,17.3,24.9,22.2,40.6"/>
	<path class="st0" d="M535.3,116.7c10.1-5.4,24.4-21.5,30.3-27.8c18.4-19.6,19.6-50.5,1.5-67.5c-18.2-17-48.5-14.1-67.3,6
		c-8.7,9.3-17.3,24.9-22.2,40.6"/>
	<path class="st3" d="M646.7,261c43.5,108.6-113.2,200.1-252.9,200.1S94.5,368.6,141,261C194.3,137.6,254.2,24.5,393.8,24.5
		S598.4,140.5,646.7,261z"/>
	<g>
		<g>
			
				<ellipse transform="matrix(0.655 -0.7556 0.7556 0.655 -37.5226 266.1617)" class="st4" cx="272.7" cy="174.2" rx="71.7" ry="55"/>
		</g>
	</g>
	<g>
		<g>
			<g>
				<g>
					
						<ellipse transform="matrix(0.7556 -0.655 0.655 0.7556 10.0478 375.2792)" class="st4" cx="507.9" cy="174.2" rx="55" ry="71.7"/>
				</g>
			</g>
		</g>
	</g>
	<path class="st3" d="M326.5,202.4c0,0,62.5-39.8,129.7-1.7"/>
	<ellipse class="st5" cx="392.3" cy="377.5" rx="47.9" ry="22.7"/>
	<g>
		<circle class="st1" cx="244.5" cy="213.4" r="94.4"/>
		<circle class="st1" cx="548.8" cy="213.4" r="94.4"/>
	</g>
	<path class="st3" d="M514.1,210.9c0,0,24.5-16,41.5,3.2"/>
	<path class="st3" d="M281.9,210.9c0,0-24.5-16-41.5,3.2"/>
	<path class="st6" d="M657,323.1c0,0,130.3,137.6,104.9,289c30.5-54.2,28.6-164.1-101.5-313.5C660.4,310,657,323.1,657,323.1z"/>
	<polygon class="st7" points="239.3,544.1 222.1,539.8 201.1,721.2 239.7,727.9 	"/>
	<polygon class="st7" points="552.1,544 552.1,729 595.3,720 568.5,537.5 	"/>
	<path class="st8" d="M388.9,416.9c-77.2,0-153.5-20.4-199.7-52.3c23,48.1,117.4,80.1,199.8,80.5c87.4,0.5,183.5-39,210.7-80.7
		C553.7,396.3,466.2,416.9,388.9,416.9z"/>
	<path class="st6" d="M230.7,813.3c106.5,56.1,269.3,43.7,344,0C452,838.4,343.9,840.3,230.7,813.3z"/>
	<path class="st9" d="M397.3,304.9c0,0-70.2-35.6-135.1,45c-43.9,54.7-119.1,80.2-149,35.4c27.9,120,145.8,121.1,190.8,16.1
		C347.2,300.8,381.2,304.5,397.3,304.9z"/>
	<path class="st9" d="M394.3,304.9c0,0,70.2-35.6,135.1,45c43.9,54.7,119.1,80.2,149,35.4c-27.9,120-145.8,121.1-190.8,16.1
		C444.4,300.8,410.4,304.5,394.3,304.9z"/>
	<g>
		<line class="st5" x1="393.4" y1="325.1" x2="393.4" y2="353.6"/>
		<path class="st10" d="M392.5,330.2c-10.7,0-40.2-18.3-41.6-41.6c-1.3-23.3,25.6-27.3,42.8-27.3s43.6,4,42.2,27.3
			C434.6,311.9,403.2,330.2,392.5,330.2z"/>
	</g>
	<path class="st11" d="M563.1,139.2c0,0,91,24.9,49.9,112.2C625.4,182.9,563.1,139.2,563.1,139.2z"/>
	<path class="st11" d="M260.8,141c0,0,91,24.9,49.9,112.2C323.2,184.6,260.8,141,260.8,141z"/>
</g>
</svg>
