<svg id="Capa_1" data-name="Capa 1" xmlns="http://www.w3.org/2000/svg" width="22" height="22" viewBox="0 0 512 512"><defs><style>.cls-1{fill:#36a9e0;}</style></defs>
<path class="cls-1" d="M347.22,301.21l-71.39-53.54V138.61a19.83,19.83,0,1,0-39.66,0v119a19.78,19.78,0,0,0,7.93,15.86l79.32,59.49a19.83,19.83,0,0,0,23.8-31.73Z"/>
<path class="cls-1" d="M256,0C114.83,0,0,114.83,0,256S114.83,512,256,512,512,397.17,512,256,397.17,0,256,0Zm0,472.34C136.73,472.34,39.66,375.27,39.66,256S136.73,39.66,256,39.66,472.34,136.73,472.34,256,375.27,472.34,256,472.34Z"/></svg>